{"header":{"PPQ":384,"timeSignature":[4,4],"bpm":150,"name":""},"tempo":[{"absoluteTime":0,"seconds":0,"bpm":150}],"timeSignature":[{"absoluteTime":0,"seconds":0,"numerator":4,"denominator":2,"click":24,"notesQ":8}],"startTime":0,"duration":57.400000000000375,"tracks":[{"startTime":0,"duration":57.400000000000375,"length":716,"notes":[{"name":"C2","midi":36,"time":0,"velocity":0.3937007874015748,"duration":0.2},{"name":"G3","midi":55,"time":0.2,"velocity":0.3937007874015748,"duration":0.2},{"name":"C2","midi":36,"time":0.4,"velocity":0.3937007874015748,"duration":0.20000000000000007},{"name":"A3","midi":57,"time":0.6000000000000001,"velocity":0.3937007874015748,"duration":0.19999999999999996},{"name":"C2","midi":36,"time":0.8,"velocity":0.3937007874015748,"duration":0.19999999999999996},{"name":"G3","midi":55,"time":1,"velocity":0.3937007874015748,"duration":0.19999999999999996},{"name":"C2","midi":36,"time":1.2,"velocity":0.3937007874015748,"duration":0.19999999999999996},{"name":"F#3","midi":54,"time":1.4,"velocity":0.3937007874015748,"duration":0.19999999999999996},{"name":"C3","midi":48,"time":1.4,"velocity":0.3937007874015748,"duration":0.19999999999999996},{"name":"C2","midi":36,"time":1.5999999999999999,"velocity":0.3937007874015748,"duration":0.19999999999999996},{"name":"G3","midi":55,"time":1.7999999999999998,"velocity":0.3937007874015748,"duration":0.19999999999999996},{"name":"C2","midi":36,"time":1.9999999999999998,"velocity":0.3937007874015748,"duration":0.19999999999999996},{"name":"A3","midi":57,"time":2.1999999999999997,"velocity":0.3937007874015748,"duration":0.20000000000000018},{"name":"C2","midi":36,"time":2.4,"velocity":0.3937007874015748,"duration":0.20000000000000018},{"name":"G3","midi":55,"time":2.6,"velocity":0.3937007874015748,"duration":0.20000000000000018},{"name":"C2","midi":36,"time":2.8000000000000003,"velocity":0.3937007874015748,"duration":0.20000000000000018},{"name":"G2","midi":43,"time":3.0000000000000004,"velocity":0.3937007874015748,"duration":0.10000000000000009},{"name":"F#3","midi":54,"time":3.0000000000000004,"velocity":0.3937007874015748,"duration":0.20000000000000018},{"name":"C3","midi":48,"time":3.0000000000000004,"velocity":0.3937007874015748,"duration":0.20000000000000018},{"name":"C2","midi":36,"time":3.2000000000000006,"velocity":0.3937007874015748,"duration":0.20000000000000018},{"name":"G3","midi":55,"time":3.400000000000001,"velocity":0.3937007874015748,"duration":0.20000000000000018},{"name":"C2","midi":36,"time":3.600000000000001,"velocity":0.3937007874015748,"duration":0.20000000000000018},{"name":"A3","midi":57,"time":3.800000000000001,"velocity":0.3937007874015748,"duration":0.19999999999999973},{"name":"C2","midi":36,"time":4.000000000000001,"velocity":0.3937007874015748,"duration":0.20000000000000018},{"name":"G3","midi":55,"time":4.200000000000001,"velocity":0.3937007874015748,"duration":0.20000000000000018},{"name":"C2","midi":36,"time":4.400000000000001,"velocity":0.3937007874015748,"duration":0.20000000000000018},{"name":"G2","midi":43,"time":4.600000000000001,"velocity":0.3937007874015748,"duration":0.09999999999999964},{"name":"F#3","midi":54,"time":4.600000000000001,"velocity":0.3937007874015748,"duration":0.1999999999999993},{"name":"C3","midi":48,"time":4.600000000000001,"velocity":0.3937007874015748,"duration":0.1999999999999993},{"name":"C2","midi":36,"time":4.800000000000001,"velocity":0.3937007874015748,"duration":0.20000000000000018},{"name":"G3","midi":55,"time":5.000000000000001,"velocity":0.3937007874015748,"duration":0.20000000000000018},{"name":"C2","midi":36,"time":5.200000000000001,"velocity":0.3937007874015748,"duration":0.20000000000000018},{"name":"A3","midi":57,"time":5.400000000000001,"velocity":0.3937007874015748,"duration":0.20000000000000018},{"name":"C2","midi":36,"time":5.600000000000001,"velocity":0.3937007874015748,"duration":0.20000000000000018},{"name":"G3","midi":55,"time":5.800000000000002,"velocity":0.3937007874015748,"duration":0.20000000000000018},{"name":"C2","midi":36,"time":6.000000000000002,"velocity":0.3937007874015748,"duration":0.20000000000000018},{"name":"F#3","midi":54,"time":6.200000000000002,"velocity":0.3937007874015748,"duration":0.20000000000000018},{"name":"C3","midi":48,"time":6.200000000000002,"velocity":0.3937007874015748,"duration":0.20000000000000018},{"name":"C2","midi":36,"time":6.400000000000002,"velocity":0.3937007874015748,"duration":0.20000000000000018},{"name":"C4","midi":60,"time":6.600000000000002,"velocity":0.3937007874015748,"duration":0.09999999999999964},{"name":"G3","midi":55,"time":6.600000000000002,"velocity":0.3937007874015748,"duration":0.1999999999999993},{"name":"G4","midi":67,"time":6.800000000000002,"velocity":0.3937007874015748,"duration":0.09999999999999964},{"name":"C2","midi":36,"time":6.800000000000002,"velocity":0.3937007874015748,"duration":0.1999999999999993},{"name":"C5","midi":72,"time":7.000000000000001,"velocity":0.3937007874015748,"duration":0.09999999999999964},{"name":"A3","midi":57,"time":7.000000000000001,"velocity":0.3937007874015748,"duration":0.1999999999999993},{"name":"D#5","midi":75,"time":7.2,"velocity":0.3937007874015748,"duration":0.40000000000000036},{"name":"C2","midi":36,"time":7.2,"velocity":0.3937007874015748,"duration":0.20000000000000018},{"name":"G3","midi":55,"time":7.4,"velocity":0.3937007874015748,"duration":0.20000000000000018},{"name":"C5","midi":72,"time":7.6000000000000005,"velocity":0.3937007874015748,"duration":0.39999999999999947},{"name":"C2","midi":36,"time":7.6000000000000005,"velocity":0.3937007874015748,"duration":0.20000000000000018},{"name":"G2","midi":43,"time":7.800000000000001,"velocity":0.3937007874015748,"duration":0.09999999999999964},{"name":"F#3","midi":54,"time":7.800000000000001,"velocity":0.3937007874015748,"duration":0.1999999999999993},{"name":"C3","midi":48,"time":7.800000000000001,"velocity":0.3937007874015748,"duration":0.1999999999999993},{"name":"B4","midi":71,"time":8,"velocity":0.3937007874015748,"duration":0.09999999999999964},{"name":"C2","midi":36,"time":8,"velocity":0.3937007874015748,"duration":0.1999999999999993},{"name":"C5","midi":72,"time":8.2,"velocity":0.3937007874015748,"duration":0.09999999999999964},{"name":"G3","midi":55,"time":8.2,"velocity":0.3937007874015748,"duration":0.1999999999999993},{"name":"D5","midi":74,"time":8.399999999999999,"velocity":0.3937007874015748,"duration":0.3999999999999986},{"name":"C2","midi":36,"time":8.399999999999999,"velocity":0.3937007874015748,"duration":0.1999999999999993},{"name":"A3","midi":57,"time":8.599999999999998,"velocity":0.3937007874015748,"duration":0.1999999999999993},{"name":"C5","midi":72,"time":8.799999999999997,"velocity":0.3937007874015748,"duration":0.09999999999999964},{"name":"C2","midi":36,"time":8.799999999999997,"velocity":0.3937007874015748,"duration":0.1999999999999993},{"name":"G4","midi":67,"time":8.999999999999996,"velocity":0.3937007874015748,"duration":0.09999999999999964},{"name":"G3","midi":55,"time":8.999999999999996,"velocity":0.3937007874015748,"duration":0.1999999999999993},{"name":"D#4","midi":63,"time":9.199999999999996,"velocity":0.3937007874015748,"duration":0.09999999999999964},{"name":"C2","midi":36,"time":9.199999999999996,"velocity":0.3937007874015748,"duration":0.1999999999999993},{"name":"C4","midi":60,"time":9.399999999999995,"velocity":0.3937007874015748,"duration":0.09999999999999964},{"name":"G2","midi":43,"time":9.399999999999995,"velocity":0.3937007874015748,"duration":0.09999999999999964},{"name":"F#3","midi":54,"time":9.399999999999995,"velocity":0.3937007874015748,"duration":0.1999999999999993},{"name":"C3","midi":48,"time":9.399999999999995,"velocity":0.3937007874015748,"duration":0.1999999999999993},{"name":"D4","midi":62,"time":9.599999999999994,"velocity":0.3937007874015748,"duration":0.09999999999999964},{"name":"C2","midi":36,"time":9.599999999999994,"velocity":0.3937007874015748,"duration":0.1999999999999993},{"name":"D#4","midi":63,"time":9.799999999999994,"velocity":0.3937007874015748,"duration":0.09999999999999964},{"name":"C3","midi":48,"time":9.799999999999994,"velocity":0.3937007874015748,"duration":0.09999999999999964},{"name":"G3","midi":55,"time":9.799999999999994,"velocity":0.3937007874015748,"duration":0.1999999999999993},{"name":"F#4","midi":66,"time":9.999999999999993,"velocity":0.3937007874015748,"duration":0.3999999999999986},{"name":"C2","midi":36,"time":9.999999999999993,"velocity":0.3937007874015748,"duration":0.1999999999999993},{"name":"C3","midi":48,"time":10.199999999999992,"velocity":0.3937007874015748,"duration":0.09999999999999964},{"name":"A3","midi":57,"time":10.199999999999992,"velocity":0.3937007874015748,"duration":0.1999999999999993},{"name":"G4","midi":67,"time":10.399999999999991,"velocity":0.3937007874015748,"duration":0.09999999999999964},{"name":"C2","midi":36,"time":10.399999999999991,"velocity":0.3937007874015748,"duration":0.1999999999999993},{"name":"D#4","midi":63,"time":10.59999999999999,"velocity":0.3937007874015748,"duration":0.09999999999999964},{"name":"C3","midi":48,"time":10.59999999999999,"velocity":0.3937007874015748,"duration":0.09999999999999964},{"name":"G3","midi":55,"time":10.59999999999999,"velocity":0.3937007874015748,"duration":0.1999999999999993},{"name":"C4","midi":60,"time":10.79999999999999,"velocity":0.3937007874015748,"duration":0.09999999999999964},{"name":"C2","midi":36,"time":10.79999999999999,"velocity":0.3937007874015748,"duration":0.1999999999999993},{"name":"A3","midi":57,"time":10.99999999999999,"velocity":0.3937007874015748,"duration":0.09999999999999964},{"name":"G2","midi":43,"time":10.99999999999999,"velocity":0.3937007874015748,"duration":0.09999999999999964},{"name":"F#3","midi":54,"time":10.99999999999999,"velocity":0.3937007874015748,"duration":0.1999999999999993},{"name":"C3","midi":48,"time":10.99999999999999,"velocity":0.3937007874015748,"duration":0.1999999999999993},{"name":"B3","midi":59,"time":11.199999999999989,"velocity":0.3937007874015748,"duration":0.09999999999999964},{"name":"C2","midi":36,"time":11.199999999999989,"velocity":0.3937007874015748,"duration":0.1999999999999993},{"name":"C4","midi":60,"time":11.399999999999988,"velocity":0.3937007874015748,"duration":0.09999999999999964},{"name":"C3","midi":48,"time":11.399999999999988,"velocity":0.3937007874015748,"duration":0.09999999999999964},{"name":"G3","midi":55,"time":11.399999999999988,"velocity":0.3937007874015748,"duration":0.1999999999999993},{"name":"D4","midi":62,"time":11.599999999999987,"velocity":0.3937007874015748,"duration":0.3999999999999986},{"name":"C2","midi":36,"time":11.599999999999987,"velocity":0.3937007874015748,"duration":0.1999999999999993},{"name":"A3","midi":57,"time":11.799999999999986,"velocity":0.3937007874015748,"duration":0.1999999999999993},{"name":"C4","midi":60,"time":11.999999999999986,"velocity":0.3937007874015748,"duration":0.3999999999999986},{"name":"C2","midi":36,"time":11.999999999999986,"velocity":0.3937007874015748,"duration":0.1999999999999993},{"name":"C3","midi":48,"time":12.199999999999985,"velocity":0.3937007874015748,"duration":0.09999999999999964},{"name":"G3","midi":55,"time":12.199999999999985,"velocity":0.3937007874015748,"duration":0.1999999999999993},{"name":"C2","midi":36,"time":12.399999999999984,"velocity":0.3937007874015748,"duration":0.1999999999999993},{"name":"G2","midi":43,"time":12.599999999999984,"velocity":0.3937007874015748,"duration":0.09999999999999964},{"name":"F#3","midi":54,"time":12.599999999999984,"velocity":0.3937007874015748,"duration":0.1999999999999993},{"name":"C3","midi":48,"time":12.599999999999984,"velocity":0.3937007874015748,"duration":0.1999999999999993},{"name":"C2","midi":36,"time":12.799999999999983,"velocity":0.3937007874015748,"duration":0.1999999999999993},{"name":"C4","midi":60,"time":12.999999999999982,"velocity":0.3937007874015748,"duration":0.09999999999999964},{"name":"C3","midi":48,"time":12.999999999999982,"velocity":0.3937007874015748,"duration":0.09999999999999964},{"name":"G3","midi":55,"time":12.999999999999982,"velocity":0.3937007874015748,"duration":0.1999999999999993},{"name":"G4","midi":67,"time":13.199999999999982,"velocity":0.3937007874015748,"duration":0.09999999999999964},{"name":"C2","midi":36,"time":13.199999999999982,"velocity":0.3937007874015748,"duration":0.1999999999999993},{"name":"C5","midi":72,"time":13.39999999999998,"velocity":0.3937007874015748,"duration":0.09999999999999964},{"name":"C3","midi":48,"time":13.39999999999998,"velocity":0.3937007874015748,"duration":0.09999999999999964},{"name":"A3","midi":57,"time":13.39999999999998,"velocity":0.3937007874015748,"duration":0.1999999999999993},{"name":"D#5","midi":75,"time":13.59999999999998,"velocity":0.3937007874015748,"duration":0.3999999999999986},{"name":"C2","midi":36,"time":13.59999999999998,"velocity":0.3937007874015748,"duration":0.1999999999999993},{"name":"C3","midi":48,"time":13.79999999999998,"velocity":0.3937007874015748,"duration":0.09999999999999964},{"name":"G3","midi":55,"time":13.79999999999998,"velocity":0.3937007874015748,"duration":0.1999999999999993},{"name":"G5","midi":79,"time":13.999999999999979,"velocity":0.3937007874015748,"duration":0.09999999999999964},{"name":"C2","midi":36,"time":13.999999999999979,"velocity":0.3937007874015748,"duration":0.1999999999999993},{"name":"A5","midi":81,"time":14.099999999999978,"velocity":0.3937007874015748,"duration":0.09999999999999964},{"name":"A#5","midi":82,"time":14.099999999999978,"velocity":0.3937007874015748,"duration":0.29999999999999893},{"name":"G2","midi":43,"time":14.199999999999978,"velocity":0.3937007874015748,"duration":0.09999999999999964},{"name":"F#3","midi":54,"time":14.199999999999978,"velocity":0.3937007874015748,"duration":0.1999999999999993},{"name":"C3","midi":48,"time":14.199999999999978,"velocity":0.3937007874015748,"duration":0.1999999999999993},{"name":"A5","midi":81,"time":14.399999999999977,"velocity":0.3937007874015748,"duration":0.09999999999999964},{"name":"C2","midi":36,"time":14.399999999999977,"velocity":0.3937007874015748,"duration":0.1999999999999993},{"name":"G5","midi":79,"time":14.599999999999977,"velocity":0.3937007874015748,"duration":0.09999999999999964},{"name":"C3","midi":48,"time":14.599999999999977,"velocity":0.3937007874015748,"duration":0.09999999999999964},{"name":"G3","midi":55,"time":14.599999999999977,"velocity":0.3937007874015748,"duration":0.1999999999999993},{"name":"A5","midi":81,"time":14.799999999999976,"velocity":0.3937007874015748,"duration":0.3999999999999986},{"name":"C2","midi":36,"time":14.799999999999976,"velocity":0.3937007874015748,"duration":0.1999999999999993},{"name":"C3","midi":48,"time":14.999999999999975,"velocity":0.3937007874015748,"duration":0.09999999999999964},{"name":"A3","midi":57,"time":14.999999999999975,"velocity":0.3937007874015748,"duration":0.1999999999999993},{"name":"A#5","midi":82,"time":15.199999999999974,"velocity":0.3937007874015748,"duration":0.09999999999999964},{"name":"C2","midi":36,"time":15.199999999999974,"velocity":0.3937007874015748,"duration":0.1999999999999993},{"name":"G5","midi":79,"time":15.399999999999974,"velocity":0.3937007874015748,"duration":0.09999999999999964},{"name":"C3","midi":48,"time":15.399999999999974,"velocity":0.3937007874015748,"duration":0.09999999999999964},{"name":"G3","midi":55,"time":15.399999999999974,"velocity":0.3937007874015748,"duration":0.1999999999999993},{"name":"D#5","midi":75,"time":15.599999999999973,"velocity":0.3937007874015748,"duration":0.09999999999999964},{"name":"C2","midi":36,"time":15.599999999999973,"velocity":0.3937007874015748,"duration":0.1999999999999993},{"name":"C5","midi":72,"time":15.799999999999972,"velocity":0.3937007874015748,"duration":0.09999999999999964},{"name":"G2","midi":43,"time":15.799999999999972,"velocity":0.3937007874015748,"duration":0.09999999999999964},{"name":"F#3","midi":54,"time":15.799999999999972,"velocity":0.3937007874015748,"duration":0.1999999999999993},{"name":"C3","midi":48,"time":15.799999999999972,"velocity":0.3937007874015748,"duration":0.1999999999999993},{"name":"B4","midi":71,"time":15.999999999999972,"velocity":0.3937007874015748,"duration":0.10000000000000142},{"name":"C2","midi":36,"time":15.999999999999972,"velocity":0.3937007874015748,"duration":0.20000000000000284},{"name":"C5","midi":72,"time":16.199999999999974,"velocity":0.3937007874015748,"duration":0.10000000000000142},{"name":"C3","midi":48,"time":16.199999999999974,"velocity":0.3937007874015748,"duration":0.10000000000000142},{"name":"G3","midi":55,"time":16.199999999999974,"velocity":0.3937007874015748,"duration":0.20000000000000284},{"name":"D5","midi":74,"time":16.399999999999977,"velocity":0.3937007874015748,"duration":0.40000000000000213},{"name":"C2","midi":36,"time":16.399999999999977,"velocity":0.3937007874015748,"duration":0.1999999999999993},{"name":"C3","midi":48,"time":16.599999999999977,"velocity":0.3937007874015748,"duration":0.10000000000000142},{"name":"A3","midi":57,"time":16.599999999999977,"velocity":0.3937007874015748,"duration":0.20000000000000284},{"name":"D#5","midi":75,"time":16.79999999999998,"velocity":0.3937007874015748,"duration":0.10000000000000142},{"name":"C2","midi":36,"time":16.79999999999998,"velocity":0.3937007874015748,"duration":0.20000000000000284},{"name":"C5","midi":72,"time":16.999999999999982,"velocity":0.3937007874015748,"duration":0.10000000000000142},{"name":"C3","midi":48,"time":16.999999999999982,"velocity":0.3937007874015748,"duration":0.10000000000000142},{"name":"G3","midi":55,"time":16.999999999999982,"velocity":0.3937007874015748,"duration":0.20000000000000284},{"name":"G4","midi":67,"time":17.199999999999985,"velocity":0.3937007874015748,"duration":0.10000000000000142},{"name":"C2","midi":36,"time":17.199999999999985,"velocity":0.3937007874015748,"duration":0.20000000000000284},{"name":"D#4","midi":63,"time":17.399999999999988,"velocity":0.3937007874015748,"duration":0.10000000000000142},{"name":"G2","midi":43,"time":17.399999999999988,"velocity":0.3937007874015748,"duration":0.10000000000000142},{"name":"F#3","midi":54,"time":17.399999999999988,"velocity":0.3937007874015748,"duration":0.20000000000000284},{"name":"C3","midi":48,"time":17.399999999999988,"velocity":0.3937007874015748,"duration":0.20000000000000284},{"name":"B4","midi":71,"time":17.59999999999999,"velocity":0.3937007874015748,"duration":0.10000000000000142},{"name":"C2","midi":36,"time":17.59999999999999,"velocity":0.3937007874015748,"duration":0.20000000000000284},{"name":"A4","midi":69,"time":17.799999999999994,"velocity":0.3937007874015748,"duration":0.10000000000000142},{"name":"C3","midi":48,"time":17.799999999999994,"velocity":0.3937007874015748,"duration":0.10000000000000142},{"name":"G3","midi":55,"time":17.799999999999994,"velocity":0.3937007874015748,"duration":0.20000000000000284},{"name":"B4","midi":71,"time":17.999999999999996,"velocity":0.3937007874015748,"duration":0.10000000000000142},{"name":"C2","midi":36,"time":17.999999999999996,"velocity":0.3937007874015748,"duration":0.20000000000000284},{"name":"A4","midi":69,"time":18.099999999999998,"velocity":0.3937007874015748,"duration":0.10000000000000142},{"name":"B4","midi":71,"time":18.099999999999998,"velocity":0.3937007874015748,"duration":0.10000000000000142},{"name":"A4","midi":69,"time":18.2,"velocity":0.3937007874015748,"duration":0.10000000000000142},{"name":"B4","midi":71,"time":18.2,"velocity":0.3937007874015748,"duration":0.20000000000000284},{"name":"C3","midi":48,"time":18.2,"velocity":0.3937007874015748,"duration":0.10000000000000142},{"name":"A3","midi":57,"time":18.2,"velocity":0.3937007874015748,"duration":0.20000000000000284},{"name":"C5","midi":72,"time":18.400000000000002,"velocity":0.3937007874015748,"duration":0.40000000000000213},{"name":"C2","midi":36,"time":18.400000000000002,"velocity":0.3937007874015748,"duration":0.1999999999999993},{"name":"C3","midi":48,"time":18.6,"velocity":0.3937007874015748,"duration":0.10000000000000142},{"name":"G3","midi":55,"time":18.6,"velocity":0.3937007874015748,"duration":0.20000000000000284},{"name":"C2","midi":36,"time":18.800000000000004,"velocity":0.3937007874015748,"duration":0.1999999999999993},{"name":"G2","midi":43,"time":19.000000000000004,"velocity":0.3937007874015748,"duration":0.10000000000000142},{"name":"F#3","midi":54,"time":19.000000000000004,"velocity":0.3937007874015748,"duration":0.20000000000000284},{"name":"C3","midi":48,"time":19.000000000000004,"velocity":0.3937007874015748,"duration":0.20000000000000284},{"name":"C2","midi":36,"time":19.200000000000006,"velocity":0.3937007874015748,"duration":0.1999999999999993},{"name":"D#5","midi":75,"time":19.400000000000006,"velocity":0.3937007874015748,"duration":0.10000000000000142},{"name":"C3","midi":48,"time":19.400000000000006,"velocity":0.3937007874015748,"duration":0.10000000000000142},{"name":"C4","midi":60,"time":19.400000000000006,"velocity":0.3937007874015748,"duration":0.20000000000000284},{"name":"G3","midi":55,"time":19.400000000000006,"velocity":0.3937007874015748,"duration":0.20000000000000284},{"name":"D#4","midi":63,"time":19.60000000000001,"velocity":0.3937007874015748,"duration":0.10000000000000142},{"name":"C5","midi":72,"time":19.60000000000001,"velocity":0.3937007874015748,"duration":0.20000000000000284},{"name":"C2","midi":36,"time":19.60000000000001,"velocity":0.3937007874015748,"duration":0.20000000000000284},{"name":"G4","midi":67,"time":19.80000000000001,"velocity":0.3937007874015748,"duration":0.10000000000000142},{"name":"C5","midi":72,"time":19.80000000000001,"velocity":0.3937007874015748,"duration":0.20000000000000284},{"name":"C3","midi":48,"time":19.80000000000001,"velocity":0.3937007874015748,"duration":0.10000000000000142},{"name":"A3","midi":57,"time":19.80000000000001,"velocity":0.3937007874015748,"duration":0.20000000000000284},{"name":"D#5","midi":75,"time":20.000000000000014,"velocity":0.3937007874015748,"duration":0.40000000000000213},{"name":"B4","midi":71,"time":20.000000000000014,"velocity":0.3937007874015748,"duration":0.40000000000000213},{"name":"C2","midi":36,"time":20.000000000000014,"velocity":0.3937007874015748,"duration":0.1999999999999993},{"name":"C3","midi":48,"time":20.200000000000014,"velocity":0.3937007874015748,"duration":0.10000000000000142},{"name":"G3","midi":55,"time":20.200000000000014,"velocity":0.3937007874015748,"duration":0.20000000000000284},{"name":"G#5","midi":80,"time":20.400000000000016,"velocity":0.3937007874015748,"duration":0.40000000000000213},{"name":"C5","midi":72,"time":20.400000000000016,"velocity":0.3937007874015748,"duration":0.40000000000000213},{"name":"C2","midi":36,"time":20.400000000000016,"velocity":0.3937007874015748,"duration":0.1999999999999993},{"name":"G2","midi":43,"time":20.600000000000016,"velocity":0.3937007874015748,"duration":0.10000000000000142},{"name":"F#3","midi":54,"time":20.600000000000016,"velocity":0.3937007874015748,"duration":0.20000000000000284},{"name":"C3","midi":48,"time":20.600000000000016,"velocity":0.3937007874015748,"duration":0.20000000000000284},{"name":"G5","midi":79,"time":20.80000000000002,"velocity":0.3937007874015748,"duration":0.10000000000000142},{"name":"B4","midi":71,"time":20.80000000000002,"velocity":0.3937007874015748,"duration":0.20000000000000284},{"name":"C2","midi":36,"time":20.80000000000002,"velocity":0.3937007874015748,"duration":0.20000000000000284},{"name":"F5","midi":77,"time":21.00000000000002,"velocity":0.3937007874015748,"duration":0.10000000000000142},{"name":"C5","midi":72,"time":21.00000000000002,"velocity":0.3937007874015748,"duration":0.20000000000000284},{"name":"C3","midi":48,"time":21.00000000000002,"velocity":0.3937007874015748,"duration":0.10000000000000142},{"name":"G3","midi":55,"time":21.00000000000002,"velocity":0.3937007874015748,"duration":0.20000000000000284},{"name":"G5","midi":79,"time":21.200000000000024,"velocity":0.3937007874015748,"duration":0.40000000000000213},{"name":"D5","midi":74,"time":21.200000000000024,"velocity":0.3937007874015748,"duration":0.40000000000000213},{"name":"C2","midi":36,"time":21.200000000000024,"velocity":0.3937007874015748,"duration":0.1999999999999993},{"name":"C3","midi":48,"time":21.400000000000023,"velocity":0.3937007874015748,"duration":0.10000000000000142},{"name":"A3","midi":57,"time":21.400000000000023,"velocity":0.3937007874015748,"duration":0.20000000000000284},{"name":"C6","midi":84,"time":21.600000000000026,"velocity":0.3937007874015748,"duration":0.10000000000000142},{"name":"G5","midi":79,"time":21.600000000000026,"velocity":0.3937007874015748,"duration":0.20000000000000284},{"name":"C2","midi":36,"time":21.600000000000026,"velocity":0.3937007874015748,"duration":0.20000000000000284},{"name":"G5","midi":79,"time":21.80000000000003,"velocity":0.3937007874015748,"duration":0.10000000000000142},{"name":"D#5","midi":75,"time":21.80000000000003,"velocity":0.3937007874015748,"duration":0.20000000000000284},{"name":"C3","midi":48,"time":21.80000000000003,"velocity":0.3937007874015748,"duration":0.10000000000000142},{"name":"G3","midi":55,"time":21.80000000000003,"velocity":0.3937007874015748,"duration":0.20000000000000284},{"name":"D#5","midi":75,"time":22.000000000000032,"velocity":0.3937007874015748,"duration":0.10000000000000142},{"name":"C5","midi":72,"time":22.000000000000032,"velocity":0.3937007874015748,"duration":0.20000000000000284},{"name":"C2","midi":36,"time":22.000000000000032,"velocity":0.3937007874015748,"duration":0.20000000000000284},{"name":"C5","midi":72,"time":22.200000000000035,"velocity":0.3937007874015748,"duration":0.10000000000000142},{"name":"G4","midi":67,"time":22.200000000000035,"velocity":0.3937007874015748,"duration":0.20000000000000284},{"name":"G2","midi":43,"time":22.200000000000035,"velocity":0.3937007874015748,"duration":0.10000000000000142},{"name":"F#3","midi":54,"time":22.200000000000035,"velocity":0.3937007874015748,"duration":0.20000000000000284},{"name":"C3","midi":48,"time":22.200000000000035,"velocity":0.3937007874015748,"duration":0.20000000000000284},{"name":"D#5","midi":75,"time":22.400000000000038,"velocity":0.3937007874015748,"duration":0.10000000000000142},{"name":"G4","midi":67,"time":22.400000000000038,"velocity":0.3937007874015748,"duration":0.20000000000000284},{"name":"C2","midi":36,"time":22.400000000000038,"velocity":0.3937007874015748,"duration":0.20000000000000284},{"name":"D#5","midi":75,"time":22.60000000000004,"velocity":0.3937007874015748,"duration":0.10000000000000142},{"name":"C5","midi":72,"time":22.60000000000004,"velocity":0.3937007874015748,"duration":0.20000000000000284},{"name":"C3","midi":48,"time":22.60000000000004,"velocity":0.3937007874015748,"duration":0.10000000000000142},{"name":"G3","midi":55,"time":22.60000000000004,"velocity":0.3937007874015748,"duration":0.20000000000000284},{"name":"F5","midi":77,"time":22.800000000000043,"velocity":0.3937007874015748,"duration":0.40000000000000213},{"name":"B4","midi":71,"time":22.800000000000043,"velocity":0.3937007874015748,"duration":0.40000000000000213},{"name":"C2","midi":36,"time":22.800000000000043,"velocity":0.3937007874015748,"duration":0.1999999999999993},{"name":"C3","midi":48,"time":23.000000000000043,"velocity":0.3937007874015748,"duration":0.10000000000000142},{"name":"A3","midi":57,"time":23.000000000000043,"velocity":0.3937007874015748,"duration":0.20000000000000284},{"name":"G5","midi":79,"time":23.200000000000045,"velocity":0.3937007874015748,"duration":0.10000000000000142},{"name":"C5","midi":72,"time":23.200000000000045,"velocity":0.3937007874015748,"duration":0.20000000000000284},{"name":"C2","midi":36,"time":23.200000000000045,"velocity":0.3937007874015748,"duration":0.20000000000000284},{"name":"D#5","midi":75,"time":23.40000000000005,"velocity":0.3937007874015748,"duration":0.10000000000000142},{"name":"C3","midi":48,"time":23.40000000000005,"velocity":0.3937007874015748,"duration":0.10000000000000142},{"name":"G3","midi":55,"time":23.40000000000005,"velocity":0.3937007874015748,"duration":0.20000000000000284},{"name":"G5","midi":79,"time":23.60000000000005,"velocity":0.3937007874015748,"duration":0.10000000000000142},{"name":"D#5","midi":75,"time":23.60000000000005,"velocity":0.3937007874015748,"duration":0.20000000000000284},{"name":"C2","midi":36,"time":23.60000000000005,"velocity":0.3937007874015748,"duration":0.20000000000000284},{"name":"D#5","midi":75,"time":23.800000000000054,"velocity":0.3937007874015748,"duration":0.10000000000000142},{"name":"C5","midi":72,"time":23.800000000000054,"velocity":0.3937007874015748,"duration":0.20000000000000284},{"name":"G2","midi":43,"time":23.800000000000054,"velocity":0.3937007874015748,"duration":0.10000000000000142},{"name":"F#3","midi":54,"time":23.800000000000054,"velocity":0.3937007874015748,"duration":0.20000000000000284},{"name":"C3","midi":48,"time":23.800000000000054,"velocity":0.3937007874015748,"duration":0.20000000000000284},{"name":"G4","midi":67,"time":24.000000000000057,"velocity":0.3937007874015748,"duration":0.10000000000000142},{"name":"B4","midi":71,"time":24.000000000000057,"velocity":0.3937007874015748,"duration":0.20000000000000284},{"name":"C2","midi":36,"time":24.000000000000057,"velocity":0.3937007874015748,"duration":0.20000000000000284},{"name":"A4","midi":69,"time":24.20000000000006,"velocity":0.3937007874015748,"duration":0.10000000000000142},{"name":"C3","midi":48,"time":24.20000000000006,"velocity":0.3937007874015748,"duration":0.10000000000000142},{"name":"G3","midi":55,"time":24.20000000000006,"velocity":0.3937007874015748,"duration":0.20000000000000284},{"name":"D5","midi":74,"time":24.400000000000063,"velocity":0.3937007874015748,"duration":0.40000000000000213},{"name":"B4","midi":71,"time":24.400000000000063,"velocity":0.3937007874015748,"duration":0.40000000000000213},{"name":"C2","midi":36,"time":24.400000000000063,"velocity":0.3937007874015748,"duration":0.1999999999999993},{"name":"C3","midi":48,"time":24.600000000000062,"velocity":0.3937007874015748,"duration":0.10000000000000142},{"name":"A3","midi":57,"time":24.600000000000062,"velocity":0.3937007874015748,"duration":0.20000000000000284},{"name":"C5","midi":72,"time":24.800000000000065,"velocity":0.3937007874015748,"duration":0.40000000000000213},{"name":"C2","midi":36,"time":24.800000000000065,"velocity":0.3937007874015748,"duration":0.1999999999999993},{"name":"C3","midi":48,"time":25.000000000000064,"velocity":0.3937007874015748,"duration":0.10000000000000142},{"name":"G3","midi":55,"time":25.000000000000064,"velocity":0.3937007874015748,"duration":0.20000000000000284},{"name":"C2","midi":36,"time":25.200000000000067,"velocity":0.3937007874015748,"duration":0.1999999999999993},{"name":"G2","midi":43,"time":25.400000000000066,"velocity":0.3937007874015748,"duration":0.10000000000000142},{"name":"F#3","midi":54,"time":25.400000000000066,"velocity":0.3937007874015748,"duration":0.20000000000000284},{"name":"C3","midi":48,"time":25.400000000000066,"velocity":0.3937007874015748,"duration":0.20000000000000284},{"name":"C2","midi":36,"time":25.60000000000007,"velocity":0.3937007874015748,"duration":0.1999999999999993},{"name":"C4","midi":60,"time":25.800000000000068,"velocity":0.3937007874015748,"duration":0.10000000000000142},{"name":"C3","midi":48,"time":25.800000000000068,"velocity":0.3937007874015748,"duration":0.10000000000000142},{"name":"G3","midi":55,"time":25.800000000000068,"velocity":0.3937007874015748,"duration":0.20000000000000284},{"name":"G4","midi":67,"time":26.00000000000007,"velocity":0.3937007874015748,"duration":0.10000000000000142},{"name":"C2","midi":36,"time":26.00000000000007,"velocity":0.3937007874015748,"duration":0.20000000000000284},{"name":"C5","midi":72,"time":26.200000000000074,"velocity":0.3937007874015748,"duration":0.10000000000000142},{"name":"C3","midi":48,"time":26.200000000000074,"velocity":0.3937007874015748,"duration":0.10000000000000142},{"name":"A3","midi":57,"time":26.200000000000074,"velocity":0.3937007874015748,"duration":0.20000000000000284},{"name":"D#5","midi":75,"time":26.400000000000077,"velocity":0.3937007874015748,"duration":0.40000000000000213},{"name":"C5","midi":72,"time":26.400000000000077,"velocity":0.3937007874015748,"duration":0.40000000000000213},{"name":"C2","midi":36,"time":26.400000000000077,"velocity":0.3937007874015748,"duration":0.1999999999999993},{"name":"C3","midi":48,"time":26.600000000000076,"velocity":0.3937007874015748,"duration":0.10000000000000142},{"name":"G3","midi":55,"time":26.600000000000076,"velocity":0.3937007874015748,"duration":0.20000000000000284},{"name":"G5","midi":79,"time":26.80000000000008,"velocity":0.3937007874015748,"duration":0.10000000000000142},{"name":"D#5","midi":75,"time":26.80000000000008,"velocity":0.3937007874015748,"duration":0.10000000000000142},{"name":"C2","midi":36,"time":26.80000000000008,"velocity":0.3937007874015748,"duration":0.20000000000000284},{"name":"A5","midi":81,"time":26.90000000000008,"velocity":0.3937007874015748,"duration":0.10000000000000142},{"name":"F5","midi":77,"time":26.90000000000008,"velocity":0.3937007874015748,"duration":0.10000000000000142},{"name":"A#5","midi":82,"time":26.90000000000008,"velocity":0.3937007874015748,"duration":0.30000000000000426},{"name":"G5","midi":79,"time":26.90000000000008,"velocity":0.3937007874015748,"duration":0.30000000000000426},{"name":"G2","midi":43,"time":27.00000000000008,"velocity":0.3937007874015748,"duration":0.10000000000000142},{"name":"F#3","midi":54,"time":27.00000000000008,"velocity":0.3937007874015748,"duration":0.20000000000000284},{"name":"C3","midi":48,"time":27.00000000000008,"velocity":0.3937007874015748,"duration":0.20000000000000284},{"name":"A5","midi":81,"time":27.200000000000085,"velocity":0.3937007874015748,"duration":0.10000000000000142},{"name":"F#5","midi":78,"time":27.200000000000085,"velocity":0.3937007874015748,"duration":0.20000000000000284},{"name":"C2","midi":36,"time":27.200000000000085,"velocity":0.3937007874015748,"duration":0.20000000000000284},{"name":"G5","midi":79,"time":27.400000000000087,"velocity":0.3937007874015748,"duration":0.10000000000000142},{"name":"D#5","midi":75,"time":27.400000000000087,"velocity":0.3937007874015748,"duration":0.20000000000000284},{"name":"C3","midi":48,"time":27.400000000000087,"velocity":0.3937007874015748,"duration":0.10000000000000142},{"name":"G3","midi":55,"time":27.400000000000087,"velocity":0.3937007874015748,"duration":0.20000000000000284},{"name":"A5","midi":81,"time":27.60000000000009,"velocity":0.3937007874015748,"duration":0.40000000000000213},{"name":"F#5","midi":78,"time":27.60000000000009,"velocity":0.3937007874015748,"duration":0.40000000000000213},{"name":"C2","midi":36,"time":27.60000000000009,"velocity":0.3937007874015748,"duration":0.1999999999999993},{"name":"C3","midi":48,"time":27.80000000000009,"velocity":0.3937007874015748,"duration":0.10000000000000142},{"name":"A3","midi":57,"time":27.80000000000009,"velocity":0.3937007874015748,"duration":0.20000000000000284},{"name":"A#5","midi":82,"time":28.000000000000092,"velocity":0.3937007874015748,"duration":0.10000000000000142},{"name":"G5","midi":79,"time":28.000000000000092,"velocity":0.3937007874015748,"duration":0.20000000000000284},{"name":"C2","midi":36,"time":28.000000000000092,"velocity":0.3937007874015748,"duration":0.20000000000000284},{"name":"G5","midi":79,"time":28.200000000000095,"velocity":0.3937007874015748,"duration":0.10000000000000142},{"name":"D#5","midi":75,"time":28.200000000000095,"velocity":0.3937007874015748,"duration":0.20000000000000284},{"name":"C3","midi":48,"time":28.200000000000095,"velocity":0.3937007874015748,"duration":0.10000000000000142},{"name":"G3","midi":55,"time":28.200000000000095,"velocity":0.3937007874015748,"duration":0.20000000000000284},{"name":"D#5","midi":75,"time":28.400000000000098,"velocity":0.3937007874015748,"duration":0.10000000000000142},{"name":"C5","midi":72,"time":28.400000000000098,"velocity":0.3937007874015748,"duration":0.20000000000000284},{"name":"C2","midi":36,"time":28.400000000000098,"velocity":0.3937007874015748,"duration":0.20000000000000284},{"name":"C5","midi":72,"time":28.6000000000001,"velocity":0.3937007874015748,"duration":0.10000000000000142},{"name":"G4","midi":67,"time":28.6000000000001,"velocity":0.3937007874015748,"duration":0.20000000000000284},{"name":"G2","midi":43,"time":28.6000000000001,"velocity":0.3937007874015748,"duration":0.10000000000000142},{"name":"F#3","midi":54,"time":28.6000000000001,"velocity":0.3937007874015748,"duration":0.20000000000000284},{"name":"C3","midi":48,"time":28.6000000000001,"velocity":0.3937007874015748,"duration":0.20000000000000284},{"name":"D#4","midi":63,"time":28.800000000000104,"velocity":0.3937007874015748,"duration":0.10000000000000142},{"name":"B4","midi":71,"time":28.800000000000104,"velocity":0.3937007874015748,"duration":0.20000000000000284},{"name":"C2","midi":36,"time":28.800000000000104,"velocity":0.3937007874015748,"duration":0.20000000000000284},{"name":"G4","midi":67,"time":29.000000000000107,"velocity":0.3937007874015748,"duration":0.10000000000000142},{"name":"C5","midi":72,"time":29.000000000000107,"velocity":0.3937007874015748,"duration":0.20000000000000284},{"name":"C3","midi":48,"time":29.000000000000107,"velocity":0.3937007874015748,"duration":0.10000000000000142},{"name":"G3","midi":55,"time":29.000000000000107,"velocity":0.3937007874015748,"duration":0.20000000000000284},{"name":"D5","midi":74,"time":29.20000000000011,"velocity":0.3937007874015748,"duration":0.40000000000000213},{"name":"B4","midi":71,"time":29.20000000000011,"velocity":0.3937007874015748,"duration":0.40000000000000213},{"name":"C2","midi":36,"time":29.20000000000011,"velocity":0.3937007874015748,"duration":0.1999999999999993},{"name":"C3","midi":48,"time":29.40000000000011,"velocity":0.3937007874015748,"duration":0.10000000000000142},{"name":"A3","midi":57,"time":29.40000000000011,"velocity":0.3937007874015748,"duration":0.20000000000000284},{"name":"C5","midi":72,"time":29.60000000000011,"velocity":0.3937007874015748,"duration":0.10000000000000142},{"name":"D#5","midi":75,"time":29.60000000000011,"velocity":0.3937007874015748,"duration":0.20000000000000284},{"name":"C2","midi":36,"time":29.60000000000011,"velocity":0.3937007874015748,"duration":0.20000000000000284},{"name":"G4","midi":67,"time":29.800000000000114,"velocity":0.3937007874015748,"duration":0.10000000000000142},{"name":"C5","midi":72,"time":29.800000000000114,"velocity":0.3937007874015748,"duration":0.20000000000000284},{"name":"C3","midi":48,"time":29.800000000000114,"velocity":0.3937007874015748,"duration":0.10000000000000142},{"name":"G3","midi":55,"time":29.800000000000114,"velocity":0.3937007874015748,"duration":0.20000000000000284},{"name":"D#4","midi":63,"time":30.000000000000117,"velocity":0.3937007874015748,"duration":0.10000000000000142},{"name":"G4","midi":67,"time":30.000000000000117,"velocity":0.3937007874015748,"duration":0.20000000000000284},{"name":"C2","midi":36,"time":30.000000000000117,"velocity":0.3937007874015748,"duration":0.20000000000000284},{"name":"C4","midi":60,"time":30.20000000000012,"velocity":0.3937007874015748,"duration":0.10000000000000142},{"name":"D#4","midi":63,"time":30.20000000000012,"velocity":0.3937007874015748,"duration":0.20000000000000284},{"name":"G2","midi":43,"time":30.20000000000012,"velocity":0.3937007874015748,"duration":0.10000000000000142},{"name":"F#3","midi":54,"time":30.20000000000012,"velocity":0.3937007874015748,"duration":0.20000000000000284},{"name":"C3","midi":48,"time":30.20000000000012,"velocity":0.3937007874015748,"duration":0.20000000000000284},{"name":"B4","midi":71,"time":30.400000000000123,"velocity":0.3937007874015748,"duration":0.10000000000000142},{"name":"B3","midi":59,"time":30.400000000000123,"velocity":0.3937007874015748,"duration":0.4000000000000057},{"name":"C2","midi":36,"time":30.400000000000123,"velocity":0.3937007874015748,"duration":0.20000000000000284},{"name":"A4","midi":69,"time":30.600000000000126,"velocity":0.3937007874015748,"duration":0.10000000000000142},{"name":"C3","midi":48,"time":30.600000000000126,"velocity":0.3937007874015748,"duration":0.10000000000000142},{"name":"G3","midi":55,"time":30.600000000000126,"velocity":0.3937007874015748,"duration":0.20000000000000284},{"name":"B4","midi":71,"time":30.80000000000013,"velocity":0.3937007874015748,"duration":0.10000000000000142},{"name":"G4","midi":67,"time":30.80000000000013,"velocity":0.3937007874015748,"duration":0.4000000000000057},{"name":"C2","midi":36,"time":30.80000000000013,"velocity":0.3937007874015748,"duration":0.20000000000000284},{"name":"A4","midi":69,"time":30.90000000000013,"velocity":0.3937007874015748,"duration":0.10000000000000142},{"name":"B4","midi":71,"time":30.90000000000013,"velocity":0.3937007874015748,"duration":0.10000000000000142},{"name":"A4","midi":69,"time":31.00000000000013,"velocity":0.3937007874015748,"duration":0.10000000000000142},{"name":"B4","midi":71,"time":31.00000000000013,"velocity":0.3937007874015748,"duration":0.20000000000000284},{"name":"C3","midi":48,"time":31.00000000000013,"velocity":0.3937007874015748,"duration":0.10000000000000142},{"name":"A3","midi":57,"time":31.00000000000013,"velocity":0.3937007874015748,"duration":0.20000000000000284},{"name":"C4","midi":60,"time":31.200000000000134,"velocity":0.3937007874015748,"duration":0.3999999999999986},{"name":"C5","midi":72,"time":31.200000000000134,"velocity":0.3937007874015748,"duration":0.3999999999999986},{"name":"C2","midi":36,"time":31.200000000000134,"velocity":0.3937007874015748,"duration":0.3999999999999986},{"name":"F3","midi":53,"time":32.000000000000135,"velocity":0.3937007874015748,"duration":0.20000000000000284},{"name":"F2","midi":41,"time":32.000000000000135,"velocity":0.3937007874015748,"duration":0.4000000000000057},{"name":"F4","midi":65,"time":32.20000000000014,"velocity":0.3937007874015748,"duration":0.20000000000000284},{"name":"F3","midi":53,"time":32.20000000000014,"velocity":0.3937007874015748,"duration":0.20000000000000284},{"name":"G#4","midi":68,"time":32.40000000000014,"velocity":0.3937007874015748,"duration":0.20000000000000284},{"name":"G#3","midi":56,"time":32.40000000000014,"velocity":0.3937007874015748,"duration":0.20000000000000284},{"name":"C3","midi":48,"time":32.40000000000014,"velocity":0.3937007874015748,"duration":0.4000000000000057},{"name":"C2","midi":36,"time":32.40000000000014,"velocity":0.3937007874015748,"duration":0.4000000000000057},{"name":"C5","midi":72,"time":32.60000000000014,"velocity":0.3937007874015748,"duration":0.20000000000000284},{"name":"C4","midi":60,"time":32.60000000000014,"velocity":0.3937007874015748,"duration":0.20000000000000284},{"name":"F5","midi":77,"time":32.800000000000146,"velocity":0.3937007874015748,"duration":0.3999999999999986},{"name":"F4","midi":65,"time":32.800000000000146,"velocity":0.3937007874015748,"duration":0.3999999999999986},{"name":"C5","midi":72,"time":32.800000000000146,"velocity":0.3937007874015748,"duration":0.3999999999999986},{"name":"F3","midi":53,"time":32.800000000000146,"velocity":0.3937007874015748,"duration":0.3999999999999986},{"name":"F2","midi":41,"time":32.800000000000146,"velocity":0.3937007874015748,"duration":0.3999999999999986},{"name":"C5","midi":72,"time":33.200000000000145,"velocity":0.3937007874015748,"duration":0.3999999999999986},{"name":"C4","midi":60,"time":33.200000000000145,"velocity":0.3937007874015748,"duration":0.3999999999999986},{"name":"F4","midi":65,"time":33.200000000000145,"velocity":0.3937007874015748,"duration":0.3999999999999986},{"name":"C3","midi":48,"time":33.200000000000145,"velocity":0.3937007874015748,"duration":0.3999999999999986},{"name":"C2","midi":36,"time":33.200000000000145,"velocity":0.3937007874015748,"duration":0.3999999999999986},{"name":"B4","midi":71,"time":33.60000000000014,"velocity":0.3937007874015748,"duration":0.20000000000000284},{"name":"B3","midi":59,"time":33.60000000000014,"velocity":0.3937007874015748,"duration":0.20000000000000284},{"name":"D4","midi":62,"time":33.60000000000014,"velocity":0.3937007874015748,"duration":0.20000000000000284},{"name":"G4","midi":67,"time":33.60000000000014,"velocity":0.3937007874015748,"duration":0.20000000000000284},{"name":"G3","midi":55,"time":33.60000000000014,"velocity":0.3937007874015748,"duration":0.4000000000000057},{"name":"G2","midi":43,"time":33.60000000000014,"velocity":0.3937007874015748,"duration":0.4000000000000057},{"name":"C5","midi":72,"time":33.800000000000146,"velocity":0.3937007874015748,"duration":0.20000000000000284},{"name":"C4","midi":60,"time":33.800000000000146,"velocity":0.3937007874015748,"duration":0.20000000000000284},{"name":"D4","midi":62,"time":34.00000000000015,"velocity":0.3937007874015748,"duration":0.3999999999999986},{"name":"G4","midi":67,"time":34.00000000000015,"velocity":0.3937007874015748,"duration":0.3999999999999986},{"name":"B4","midi":71,"time":34.00000000000015,"velocity":0.3937007874015748,"duration":0.3999999999999986},{"name":"D3","midi":50,"time":34.00000000000015,"velocity":0.3937007874015748,"duration":0.3999999999999986},{"name":"D2","midi":38,"time":34.00000000000015,"velocity":0.3937007874015748,"duration":0.3999999999999986},{"name":"D5","midi":74,"time":34.10000000000015,"velocity":0.3937007874015748,"duration":0.3999999999999986},{"name":"B4","midi":71,"time":34.40000000000015,"velocity":0.3937007874015748,"duration":0.20000000000000284},{"name":"B3","midi":59,"time":34.40000000000015,"velocity":0.3937007874015748,"duration":0.20000000000000284},{"name":"D4","midi":62,"time":34.40000000000015,"velocity":0.3937007874015748,"duration":0.20000000000000284},{"name":"G4","midi":67,"time":34.40000000000015,"velocity":0.3937007874015748,"duration":0.20000000000000284},{"name":"G3","midi":55,"time":34.40000000000015,"velocity":0.3937007874015748,"duration":0.20000000000000284},{"name":"G2","midi":43,"time":34.40000000000015,"velocity":0.3937007874015748,"duration":0.4000000000000057},{"name":"G4","midi":67,"time":34.60000000000015,"velocity":0.3937007874015748,"duration":0.20000000000000284},{"name":"G3","midi":55,"time":34.60000000000015,"velocity":0.3937007874015748,"duration":0.20000000000000284},{"name":"B4","midi":71,"time":34.80000000000015,"velocity":0.3937007874015748,"duration":0.20000000000000284},{"name":"B3","midi":59,"time":34.80000000000015,"velocity":0.3937007874015748,"duration":0.20000000000000284},{"name":"D3","midi":50,"time":34.80000000000015,"velocity":0.3937007874015748,"duration":0.4000000000000057},{"name":"D2","midi":38,"time":34.80000000000015,"velocity":0.3937007874015748,"duration":0.4000000000000057},{"name":"D5","midi":74,"time":35.000000000000156,"velocity":0.3937007874015748,"duration":0.20000000000000284},{"name":"D4","midi":62,"time":35.000000000000156,"velocity":0.3937007874015748,"duration":0.20000000000000284},{"name":"D#5","midi":75,"time":35.20000000000016,"velocity":0.3937007874015748,"duration":0.20000000000000284},{"name":"D#4","midi":63,"time":35.20000000000016,"velocity":0.3937007874015748,"duration":0.20000000000000284},{"name":"G#4","midi":68,"time":35.20000000000016,"velocity":0.3937007874015748,"duration":0.20000000000000284},{"name":"C5","midi":72,"time":35.20000000000016,"velocity":0.3937007874015748,"duration":0.20000000000000284},{"name":"G#3","midi":56,"time":35.20000000000016,"velocity":0.3937007874015748,"duration":0.4000000000000057},{"name":"G#2","midi":44,"time":35.20000000000016,"velocity":0.3937007874015748,"duration":0.4000000000000057},{"name":"F5","midi":77,"time":35.40000000000016,"velocity":0.3937007874015748,"duration":0.10000000000000142},{"name":"D#5","midi":75,"time":35.50000000000016,"velocity":0.3937007874015748,"duration":0.10000000000000142},{"name":"D5","midi":74,"time":35.600000000000165,"velocity":0.3937007874015748,"duration":0.20000000000000284},{"name":"D4","midi":62,"time":35.600000000000165,"velocity":0.3937007874015748,"duration":0.20000000000000284},{"name":"D#3","midi":51,"time":35.600000000000165,"velocity":0.3937007874015748,"duration":0.4000000000000057},{"name":"D#2","midi":39,"time":35.600000000000165,"velocity":0.3937007874015748,"duration":0.4000000000000057},{"name":"C5","midi":72,"time":35.80000000000017,"velocity":0.3937007874015748,"duration":0.20000000000000284},{"name":"C4","midi":60,"time":35.80000000000017,"velocity":0.3937007874015748,"duration":0.20000000000000284},{"name":"C6","midi":84,"time":36.00000000000017,"velocity":0.3937007874015748,"duration":0.3999999999999986},{"name":"C5","midi":72,"time":36.00000000000017,"velocity":0.3937007874015748,"duration":0.3999999999999986},{"name":"D#5","midi":75,"time":36.00000000000017,"velocity":0.3937007874015748,"duration":0.3999999999999986},{"name":"G#5","midi":80,"time":36.00000000000017,"velocity":0.3937007874015748,"duration":0.3999999999999986},{"name":"G#3","midi":56,"time":36.00000000000017,"velocity":0.3937007874015748,"duration":0.3999999999999986},{"name":"G#2","midi":44,"time":36.00000000000017,"velocity":0.3937007874015748,"duration":0.3999999999999986},{"name":"A#5","midi":82,"time":36.40000000000017,"velocity":0.3937007874015748,"duration":0.20000000000000284},{"name":"A#4","midi":70,"time":36.40000000000017,"velocity":0.3937007874015748,"duration":0.20000000000000284},{"name":"F3","midi":53,"time":36.40000000000017,"velocity":0.3937007874015748,"duration":0.4000000000000057},{"name":"F2","midi":41,"time":36.40000000000017,"velocity":0.3937007874015748,"duration":0.4000000000000057},{"name":"G#5","midi":80,"time":36.60000000000017,"velocity":0.3937007874015748,"duration":0.20000000000000284},{"name":"G#4","midi":68,"time":36.60000000000017,"velocity":0.3937007874015748,"duration":0.20000000000000284},{"name":"G5","midi":79,"time":36.800000000000175,"velocity":0.3937007874015748,"duration":0.20000000000000284},{"name":"G4","midi":67,"time":36.800000000000175,"velocity":0.3937007874015748,"duration":0.20000000000000284},{"name":"A#4","midi":70,"time":36.800000000000175,"velocity":0.3937007874015748,"duration":0.20000000000000284},{"name":"D#5","midi":75,"time":36.800000000000175,"velocity":0.3937007874015748,"duration":0.20000000000000284},{"name":"D#3","midi":51,"time":36.800000000000175,"velocity":0.3937007874015748,"duration":0.4000000000000057},{"name":"D#2","midi":39,"time":36.800000000000175,"velocity":0.3937007874015748,"duration":0.4000000000000057},{"name":"G#5","midi":80,"time":37.00000000000018,"velocity":0.3937007874015748,"duration":0.10000000000000142},{"name":"G5","midi":79,"time":37.10000000000018,"velocity":0.3937007874015748,"duration":0.10000000000000142},{"name":"F5","midi":77,"time":37.20000000000018,"velocity":0.3937007874015748,"duration":0.20000000000000284},{"name":"F4","midi":65,"time":37.20000000000018,"velocity":0.3937007874015748,"duration":0.20000000000000284},{"name":"A#2","midi":46,"time":37.20000000000018,"velocity":0.3937007874015748,"duration":0.4000000000000057},{"name":"A#1","midi":34,"time":37.20000000000018,"velocity":0.3937007874015748,"duration":0.4000000000000057},{"name":"G#5","midi":80,"time":37.40000000000018,"velocity":0.3937007874015748,"duration":0.20000000000000284},{"name":"G#4","midi":68,"time":37.40000000000018,"velocity":0.3937007874015748,"duration":0.20000000000000284},{"name":"G5","midi":79,"time":37.600000000000186,"velocity":0.3937007874015748,"duration":0.3999999999999986},{"name":"G4","midi":67,"time":37.600000000000186,"velocity":0.3937007874015748,"duration":0.3999999999999986},{"name":"A#4","midi":70,"time":37.600000000000186,"velocity":0.3937007874015748,"duration":0.3999999999999986},{"name":"D#5","midi":75,"time":37.600000000000186,"velocity":0.3937007874015748,"duration":0.3999999999999986},{"name":"D2","midi":38,"time":37.600000000000186,"velocity":0.3937007874015748,"duration":0.3999999999999986},{"name":"D1","midi":26,"time":37.600000000000186,"velocity":0.3937007874015748,"duration":0.3999999999999986},{"name":"G3","midi":55,"time":38.000000000000185,"velocity":0.3937007874015748,"duration":0.3999999999999986},{"name":"G2","midi":43,"time":38.000000000000185,"velocity":0.3937007874015748,"duration":0.3999999999999986},{"name":"F3","midi":53,"time":38.40000000000018,"velocity":0.3937007874015748,"duration":0.20000000000000284},{"name":"F2","midi":41,"time":38.40000000000018,"velocity":0.3937007874015748,"duration":0.4000000000000057},{"name":"F4","midi":65,"time":38.600000000000186,"velocity":0.3937007874015748,"duration":0.20000000000000284},{"name":"F3","midi":53,"time":38.600000000000186,"velocity":0.3937007874015748,"duration":0.20000000000000284},{"name":"G#4","midi":68,"time":38.80000000000019,"velocity":0.3937007874015748,"duration":0.20000000000000284},{"name":"G#3","midi":56,"time":38.80000000000019,"velocity":0.3937007874015748,"duration":0.20000000000000284},{"name":"C3","midi":48,"time":38.80000000000019,"velocity":0.3937007874015748,"duration":0.4000000000000057},{"name":"C2","midi":36,"time":38.80000000000019,"velocity":0.3937007874015748,"duration":0.4000000000000057},{"name":"C5","midi":72,"time":39.00000000000019,"velocity":0.3937007874015748,"duration":0.20000000000000284},{"name":"C4","midi":60,"time":39.00000000000019,"velocity":0.3937007874015748,"duration":0.20000000000000284},{"name":"F5","midi":77,"time":39.200000000000195,"velocity":0.3937007874015748,"duration":0.3999999999999986},{"name":"F4","midi":65,"time":39.200000000000195,"velocity":0.3937007874015748,"duration":0.3999999999999986},{"name":"C5","midi":72,"time":39.200000000000195,"velocity":0.3937007874015748,"duration":0.3999999999999986},{"name":"F3","midi":53,"time":39.200000000000195,"velocity":0.3937007874015748,"duration":0.3999999999999986},{"name":"F2","midi":41,"time":39.200000000000195,"velocity":0.3937007874015748,"duration":0.3999999999999986},{"name":"C5","midi":72,"time":39.60000000000019,"velocity":0.3937007874015748,"duration":0.3999999999999986},{"name":"C4","midi":60,"time":39.60000000000019,"velocity":0.3937007874015748,"duration":0.3999999999999986},{"name":"F4","midi":65,"time":39.60000000000019,"velocity":0.3937007874015748,"duration":0.3999999999999986},{"name":"C3","midi":48,"time":39.60000000000019,"velocity":0.3937007874015748,"duration":0.3999999999999986},{"name":"C2","midi":36,"time":39.60000000000019,"velocity":0.3937007874015748,"duration":0.3999999999999986},{"name":"B4","midi":71,"time":40.00000000000019,"velocity":0.3937007874015748,"duration":0.20000000000000284},{"name":"B3","midi":59,"time":40.00000000000019,"velocity":0.3937007874015748,"duration":0.20000000000000284},{"name":"D4","midi":62,"time":40.00000000000019,"velocity":0.3937007874015748,"duration":0.20000000000000284},{"name":"G4","midi":67,"time":40.00000000000019,"velocity":0.3937007874015748,"duration":0.20000000000000284},{"name":"G3","midi":55,"time":40.00000000000019,"velocity":0.3937007874015748,"duration":0.4000000000000057},{"name":"G2","midi":43,"time":40.00000000000019,"velocity":0.3937007874015748,"duration":0.4000000000000057},{"name":"C5","midi":72,"time":40.200000000000195,"velocity":0.3937007874015748,"duration":0.20000000000000284},{"name":"C4","midi":60,"time":40.200000000000195,"velocity":0.3937007874015748,"duration":0.20000000000000284},{"name":"D4","midi":62,"time":40.4000000000002,"velocity":0.3937007874015748,"duration":0.3999999999999986},{"name":"G4","midi":67,"time":40.4000000000002,"velocity":0.3937007874015748,"duration":0.3999999999999986},{"name":"B4","midi":71,"time":40.4000000000002,"velocity":0.3937007874015748,"duration":0.3999999999999986},{"name":"D3","midi":50,"time":40.4000000000002,"velocity":0.3937007874015748,"duration":0.3999999999999986},{"name":"D2","midi":38,"time":40.4000000000002,"velocity":0.3937007874015748,"duration":0.3999999999999986},{"name":"D5","midi":74,"time":40.5000000000002,"velocity":0.3937007874015748,"duration":0.3999999999999986},{"name":"B4","midi":71,"time":40.800000000000196,"velocity":0.3937007874015748,"duration":0.20000000000000284},{"name":"B3","midi":59,"time":40.800000000000196,"velocity":0.3937007874015748,"duration":0.20000000000000284},{"name":"D4","midi":62,"time":40.800000000000196,"velocity":0.3937007874015748,"duration":0.20000000000000284},{"name":"G4","midi":67,"time":40.800000000000196,"velocity":0.3937007874015748,"duration":0.20000000000000284},{"name":"G3","midi":55,"time":40.800000000000196,"velocity":0.3937007874015748,"duration":0.20000000000000284},{"name":"G2","midi":43,"time":40.800000000000196,"velocity":0.3937007874015748,"duration":0.4000000000000057},{"name":"G4","midi":67,"time":41.0000000000002,"velocity":0.3937007874015748,"duration":0.20000000000000284},{"name":"G3","midi":55,"time":41.0000000000002,"velocity":0.3937007874015748,"duration":0.20000000000000284},{"name":"B4","midi":71,"time":41.2000000000002,"velocity":0.3937007874015748,"duration":0.20000000000000284},{"name":"B3","midi":59,"time":41.2000000000002,"velocity":0.3937007874015748,"duration":0.20000000000000284},{"name":"D3","midi":50,"time":41.2000000000002,"velocity":0.3937007874015748,"duration":0.4000000000000057},{"name":"D2","midi":38,"time":41.2000000000002,"velocity":0.3937007874015748,"duration":0.4000000000000057},{"name":"D5","midi":74,"time":41.400000000000205,"velocity":0.3937007874015748,"duration":0.20000000000000284},{"name":"D4","midi":62,"time":41.400000000000205,"velocity":0.3937007874015748,"duration":0.20000000000000284},{"name":"D#5","midi":75,"time":41.60000000000021,"velocity":0.3937007874015748,"duration":0.20000000000000284},{"name":"D#4","midi":63,"time":41.60000000000021,"velocity":0.3937007874015748,"duration":0.20000000000000284},{"name":"G#4","midi":68,"time":41.60000000000021,"velocity":0.3937007874015748,"duration":0.20000000000000284},{"name":"C5","midi":72,"time":41.60000000000021,"velocity":0.3937007874015748,"duration":0.20000000000000284},{"name":"G#3","midi":56,"time":41.60000000000021,"velocity":0.3937007874015748,"duration":0.4000000000000057},{"name":"G#2","midi":44,"time":41.60000000000021,"velocity":0.3937007874015748,"duration":0.4000000000000057},{"name":"F5","midi":77,"time":41.80000000000021,"velocity":0.3937007874015748,"duration":0.10000000000000142},{"name":"D#5","midi":75,"time":41.90000000000021,"velocity":0.3937007874015748,"duration":0.10000000000000142},{"name":"D5","midi":74,"time":42.00000000000021,"velocity":0.3937007874015748,"duration":0.20000000000000284},{"name":"D4","midi":62,"time":42.00000000000021,"velocity":0.3937007874015748,"duration":0.20000000000000284},{"name":"D#3","midi":51,"time":42.00000000000021,"velocity":0.3937007874015748,"duration":0.4000000000000057},{"name":"D#2","midi":39,"time":42.00000000000021,"velocity":0.3937007874015748,"duration":0.4000000000000057},{"name":"C5","midi":72,"time":42.200000000000216,"velocity":0.3937007874015748,"duration":0.20000000000000284},{"name":"C4","midi":60,"time":42.200000000000216,"velocity":0.3937007874015748,"duration":0.20000000000000284},{"name":"C6","midi":84,"time":42.40000000000022,"velocity":0.3937007874015748,"duration":0.3999999999999986},{"name":"C5","midi":72,"time":42.40000000000022,"velocity":0.3937007874015748,"duration":0.3999999999999986},{"name":"D#5","midi":75,"time":42.40000000000022,"velocity":0.3937007874015748,"duration":0.3999999999999986},{"name":"G#5","midi":80,"time":42.40000000000022,"velocity":0.3937007874015748,"duration":0.3999999999999986},{"name":"G#3","midi":56,"time":42.40000000000022,"velocity":0.3937007874015748,"duration":0.3999999999999986},{"name":"G#2","midi":44,"time":42.40000000000022,"velocity":0.3937007874015748,"duration":0.3999999999999986},{"name":"D6","midi":86,"time":42.80000000000022,"velocity":0.3937007874015748,"duration":0.20000000000000284},{"name":"D5","midi":74,"time":42.80000000000022,"velocity":0.3937007874015748,"duration":0.20000000000000284},{"name":"F5","midi":77,"time":42.80000000000022,"velocity":0.3937007874015748,"duration":0.20000000000000284},{"name":"A#5","midi":82,"time":42.80000000000022,"velocity":0.3937007874015748,"duration":0.20000000000000284},{"name":"F3","midi":53,"time":42.80000000000022,"velocity":0.3937007874015748,"duration":0.4000000000000057},{"name":"F2","midi":41,"time":42.80000000000022,"velocity":0.3937007874015748,"duration":0.4000000000000057},{"name":"D#6","midi":87,"time":43.00000000000022,"velocity":0.3937007874015748,"duration":0.20000000000000284},{"name":"D#5","midi":75,"time":43.00000000000022,"velocity":0.3937007874015748,"duration":0.20000000000000284},{"name":"G#5","midi":80,"time":43.00000000000022,"velocity":0.3937007874015748,"duration":0.20000000000000284},{"name":"C6","midi":84,"time":43.00000000000022,"velocity":0.3937007874015748,"duration":0.20000000000000284},{"name":"D6","midi":86,"time":43.20000000000022,"velocity":0.3937007874015748,"duration":0.20000000000000284},{"name":"D5","midi":74,"time":43.20000000000022,"velocity":0.3937007874015748,"duration":0.20000000000000284},{"name":"F5","midi":77,"time":43.20000000000022,"velocity":0.3937007874015748,"duration":0.20000000000000284},{"name":"G#5","midi":80,"time":43.20000000000022,"velocity":0.3937007874015748,"duration":0.20000000000000284},{"name":"F3","midi":53,"time":43.20000000000022,"velocity":0.3937007874015748,"duration":0.4000000000000057},{"name":"F2","midi":41,"time":43.20000000000022,"velocity":0.3937007874015748,"duration":0.4000000000000057},{"name":"C6","midi":84,"time":43.400000000000226,"velocity":0.3937007874015748,"duration":0.20000000000000284},{"name":"C5","midi":72,"time":43.400000000000226,"velocity":0.3937007874015748,"duration":0.20000000000000284},{"name":"D#5","midi":75,"time":43.400000000000226,"velocity":0.3937007874015748,"duration":0.20000000000000284},{"name":"G#5","midi":80,"time":43.400000000000226,"velocity":0.3937007874015748,"duration":0.20000000000000284},{"name":"B5","midi":83,"time":43.60000000000023,"velocity":0.3937007874015748,"duration":0.20000000000000284},{"name":"B4","midi":71,"time":43.60000000000023,"velocity":0.3937007874015748,"duration":0.20000000000000284},{"name":"D5","midi":74,"time":43.60000000000023,"velocity":0.3937007874015748,"duration":0.20000000000000284},{"name":"F5","midi":77,"time":43.60000000000023,"velocity":0.3937007874015748,"duration":0.20000000000000284},{"name":"D3","midi":50,"time":43.60000000000023,"velocity":0.3937007874015748,"duration":0.4000000000000057},{"name":"D2","midi":38,"time":43.60000000000023,"velocity":0.3937007874015748,"duration":0.4000000000000057},{"name":"G#5","midi":80,"time":43.80000000000023,"velocity":0.3937007874015748,"duration":0.20000000000000284},{"name":"G#4","midi":68,"time":43.80000000000023,"velocity":0.3937007874015748,"duration":0.20000000000000284},{"name":"C5","midi":72,"time":43.80000000000023,"velocity":0.3937007874015748,"duration":0.20000000000000284},{"name":"D#5","midi":75,"time":43.80000000000023,"velocity":0.3937007874015748,"duration":0.20000000000000284},{"name":"G4","midi":67,"time":44.000000000000234,"velocity":0.3937007874015748,"duration":0.4000000000000057},{"name":"B4","midi":71,"time":44.000000000000234,"velocity":0.3937007874015748,"duration":0.4000000000000057},{"name":"D5","midi":74,"time":44.000000000000234,"velocity":0.3937007874015748,"duration":0.4000000000000057},{"name":"G3","midi":55,"time":44.000000000000234,"velocity":0.3937007874015748,"duration":0.20000000000000284},{"name":"G2","midi":43,"time":44.000000000000234,"velocity":0.3937007874015748,"duration":0.20000000000000284},{"name":"G5","midi":79,"time":44.100000000000236,"velocity":0.3937007874015748,"duration":0.4000000000000057},{"name":"F3","midi":53,"time":44.20000000000024,"velocity":0.3937007874015748,"duration":0.20000000000000284},{"name":"F2","midi":41,"time":44.20000000000024,"velocity":0.3937007874015748,"duration":0.20000000000000284},{"name":"D#3","midi":51,"time":44.40000000000024,"velocity":0.3937007874015748,"duration":0.20000000000000284},{"name":"D#2","midi":39,"time":44.40000000000024,"velocity":0.3937007874015748,"duration":0.20000000000000284},{"name":"D3","midi":50,"time":44.60000000000024,"velocity":0.3937007874015748,"duration":0.20000000000000284},{"name":"D2","midi":38,"time":44.60000000000024,"velocity":0.3937007874015748,"duration":0.20000000000000284},{"name":"F3","midi":53,"time":44.800000000000246,"velocity":0.3937007874015748,"duration":0.20000000000000284},{"name":"F2","midi":41,"time":44.800000000000246,"velocity":0.3937007874015748,"duration":0.4000000000000057},{"name":"F4","midi":65,"time":45.00000000000025,"velocity":0.3937007874015748,"duration":0.20000000000000284},{"name":"F3","midi":53,"time":45.00000000000025,"velocity":0.3937007874015748,"duration":0.20000000000000284},{"name":"G#4","midi":68,"time":45.20000000000025,"velocity":0.3937007874015748,"duration":0.20000000000000284},{"name":"G#3","midi":56,"time":45.20000000000025,"velocity":0.3937007874015748,"duration":0.20000000000000284},{"name":"C3","midi":48,"time":45.20000000000025,"velocity":0.3937007874015748,"duration":0.4000000000000057},{"name":"C2","midi":36,"time":45.20000000000025,"velocity":0.3937007874015748,"duration":0.4000000000000057},{"name":"C5","midi":72,"time":45.400000000000254,"velocity":0.3937007874015748,"duration":0.20000000000000284},{"name":"C4","midi":60,"time":45.400000000000254,"velocity":0.3937007874015748,"duration":0.20000000000000284},{"name":"F5","midi":77,"time":45.60000000000026,"velocity":0.3937007874015748,"duration":0.3999999999999986},{"name":"F4","midi":65,"time":45.60000000000026,"velocity":0.3937007874015748,"duration":0.3999999999999986},{"name":"C5","midi":72,"time":45.60000000000026,"velocity":0.3937007874015748,"duration":0.3999999999999986},{"name":"F3","midi":53,"time":45.60000000000026,"velocity":0.3937007874015748,"duration":0.3999999999999986},{"name":"F2","midi":41,"time":45.60000000000026,"velocity":0.3937007874015748,"duration":0.3999999999999986},{"name":"C5","midi":72,"time":46.000000000000256,"velocity":0.3937007874015748,"duration":0.3999999999999986},{"name":"C4","midi":60,"time":46.000000000000256,"velocity":0.3937007874015748,"duration":0.3999999999999986},{"name":"F4","midi":65,"time":46.000000000000256,"velocity":0.3937007874015748,"duration":0.3999999999999986},{"name":"C3","midi":48,"time":46.000000000000256,"velocity":0.3937007874015748,"duration":0.3999999999999986},{"name":"C2","midi":36,"time":46.000000000000256,"velocity":0.3937007874015748,"duration":0.3999999999999986},{"name":"B4","midi":71,"time":46.400000000000254,"velocity":0.3937007874015748,"duration":0.20000000000000284},{"name":"B3","midi":59,"time":46.400000000000254,"velocity":0.3937007874015748,"duration":0.20000000000000284},{"name":"D4","midi":62,"time":46.400000000000254,"velocity":0.3937007874015748,"duration":0.20000000000000284},{"name":"G4","midi":67,"time":46.400000000000254,"velocity":0.3937007874015748,"duration":0.20000000000000284},{"name":"G3","midi":55,"time":46.400000000000254,"velocity":0.3937007874015748,"duration":0.4000000000000057},{"name":"G2","midi":43,"time":46.400000000000254,"velocity":0.3937007874015748,"duration":0.4000000000000057},{"name":"C5","midi":72,"time":46.60000000000026,"velocity":0.3937007874015748,"duration":0.20000000000000284},{"name":"C4","midi":60,"time":46.60000000000026,"velocity":0.3937007874015748,"duration":0.20000000000000284},{"name":"D5","midi":74,"time":46.80000000000026,"velocity":0.3937007874015748,"duration":0.3999999999999986},{"name":"D4","midi":62,"time":46.80000000000026,"velocity":0.3937007874015748,"duration":0.3999999999999986},{"name":"G4","midi":67,"time":46.80000000000026,"velocity":0.3937007874015748,"duration":0.3999999999999986},{"name":"B4","midi":71,"time":46.80000000000026,"velocity":0.3937007874015748,"duration":0.3999999999999986},{"name":"D3","midi":50,"time":46.80000000000026,"velocity":0.3937007874015748,"duration":0.3999999999999986},{"name":"D2","midi":38,"time":46.80000000000026,"velocity":0.3937007874015748,"duration":0.3999999999999986},{"name":"B4","midi":71,"time":47.20000000000026,"velocity":0.3937007874015748,"duration":0.20000000000000284},{"name":"B3","midi":59,"time":47.20000000000026,"velocity":0.3937007874015748,"duration":0.20000000000000284},{"name":"D4","midi":62,"time":47.20000000000026,"velocity":0.3937007874015748,"duration":0.20000000000000284},{"name":"G4","midi":67,"time":47.20000000000026,"velocity":0.3937007874015748,"duration":0.20000000000000284},{"name":"G3","midi":55,"time":47.20000000000026,"velocity":0.3937007874015748,"duration":0.20000000000000284},{"name":"G2","midi":43,"time":47.20000000000026,"velocity":0.3937007874015748,"duration":0.4000000000000057},{"name":"G4","midi":67,"time":47.40000000000026,"velocity":0.3937007874015748,"duration":0.20000000000000284},{"name":"G3","midi":55,"time":47.40000000000026,"velocity":0.3937007874015748,"duration":0.20000000000000284},{"name":"B4","midi":71,"time":47.600000000000264,"velocity":0.3937007874015748,"duration":0.20000000000000284},{"name":"B3","midi":59,"time":47.600000000000264,"velocity":0.3937007874015748,"duration":0.20000000000000284},{"name":"D3","midi":50,"time":47.600000000000264,"velocity":0.3937007874015748,"duration":0.4000000000000057},{"name":"D2","midi":38,"time":47.600000000000264,"velocity":0.3937007874015748,"duration":0.4000000000000057},{"name":"D5","midi":74,"time":47.80000000000027,"velocity":0.3937007874015748,"duration":0.20000000000000284},{"name":"D4","midi":62,"time":47.80000000000027,"velocity":0.3937007874015748,"duration":0.20000000000000284},{"name":"D#5","midi":75,"time":48.00000000000027,"velocity":0.3937007874015748,"duration":0.20000000000000284},{"name":"D#4","midi":63,"time":48.00000000000027,"velocity":0.3937007874015748,"duration":0.20000000000000284},{"name":"G#4","midi":68,"time":48.00000000000027,"velocity":0.3937007874015748,"duration":0.20000000000000284},{"name":"C5","midi":72,"time":48.00000000000027,"velocity":0.3937007874015748,"duration":0.20000000000000284},{"name":"G#3","midi":56,"time":48.00000000000027,"velocity":0.3937007874015748,"duration":0.4000000000000057},{"name":"G#2","midi":44,"time":48.00000000000027,"velocity":0.3937007874015748,"duration":0.4000000000000057},{"name":"F5","midi":77,"time":48.20000000000027,"velocity":0.3937007874015748,"duration":0.10000000000000142},{"name":"D#5","midi":75,"time":48.300000000000274,"velocity":0.3937007874015748,"duration":0.10000000000000142},{"name":"D5","midi":74,"time":48.400000000000276,"velocity":0.3937007874015748,"duration":0.20000000000000284},{"name":"D4","midi":62,"time":48.400000000000276,"velocity":0.3937007874015748,"duration":0.20000000000000284},{"name":"D#3","midi":51,"time":48.400000000000276,"velocity":0.3937007874015748,"duration":0.4000000000000057},{"name":"D#2","midi":39,"time":48.400000000000276,"velocity":0.3937007874015748,"duration":0.4000000000000057},{"name":"C5","midi":72,"time":48.60000000000028,"velocity":0.3937007874015748,"duration":0.20000000000000284},{"name":"C4","midi":60,"time":48.60000000000028,"velocity":0.3937007874015748,"duration":0.20000000000000284},{"name":"C6","midi":84,"time":48.80000000000028,"velocity":0.3937007874015748,"duration":0.3999999999999986},{"name":"C5","midi":72,"time":48.80000000000028,"velocity":0.3937007874015748,"duration":0.3999999999999986},{"name":"D#5","midi":75,"time":48.80000000000028,"velocity":0.3937007874015748,"duration":0.3999999999999986},{"name":"G#5","midi":80,"time":48.80000000000028,"velocity":0.3937007874015748,"duration":0.3999999999999986},{"name":"G#3","midi":56,"time":48.80000000000028,"velocity":0.3937007874015748,"duration":0.3999999999999986},{"name":"G#2","midi":44,"time":48.80000000000028,"velocity":0.3937007874015748,"duration":0.3999999999999986},{"name":"A#5","midi":82,"time":49.20000000000028,"velocity":0.3937007874015748,"duration":0.20000000000000284},{"name":"A#4","midi":70,"time":49.20000000000028,"velocity":0.3937007874015748,"duration":0.20000000000000284},{"name":"F3","midi":53,"time":49.20000000000028,"velocity":0.3937007874015748,"duration":0.4000000000000057},{"name":"F2","midi":41,"time":49.20000000000028,"velocity":0.3937007874015748,"duration":0.4000000000000057},{"name":"G#5","midi":80,"time":49.40000000000028,"velocity":0.3937007874015748,"duration":0.20000000000000284},{"name":"G#4","midi":68,"time":49.40000000000028,"velocity":0.3937007874015748,"duration":0.20000000000000284},{"name":"G5","midi":79,"time":49.600000000000286,"velocity":0.3937007874015748,"duration":0.20000000000000284},{"name":"G4","midi":67,"time":49.600000000000286,"velocity":0.3937007874015748,"duration":0.20000000000000284},{"name":"A#4","midi":70,"time":49.600000000000286,"velocity":0.3937007874015748,"duration":0.20000000000000284},{"name":"D#5","midi":75,"time":49.600000000000286,"velocity":0.3937007874015748,"duration":0.20000000000000284},{"name":"D#3","midi":51,"time":49.600000000000286,"velocity":0.3937007874015748,"duration":0.4000000000000057},{"name":"D#2","midi":39,"time":49.600000000000286,"velocity":0.3937007874015748,"duration":0.4000000000000057},{"name":"G#5","midi":80,"time":49.80000000000029,"velocity":0.3937007874015748,"duration":0.10000000000000142},{"name":"G5","midi":79,"time":49.90000000000029,"velocity":0.3937007874015748,"duration":0.10000000000000142},{"name":"F5","midi":77,"time":50.00000000000029,"velocity":0.3937007874015748,"duration":0.20000000000000284},{"name":"F4","midi":65,"time":50.00000000000029,"velocity":0.3937007874015748,"duration":0.20000000000000284},{"name":"A#2","midi":46,"time":50.00000000000029,"velocity":0.3937007874015748,"duration":0.4000000000000057},{"name":"A#1","midi":34,"time":50.00000000000029,"velocity":0.3937007874015748,"duration":0.4000000000000057},{"name":"G#5","midi":80,"time":50.200000000000294,"velocity":0.3937007874015748,"duration":0.20000000000000284},{"name":"G#4","midi":68,"time":50.200000000000294,"velocity":0.3937007874015748,"duration":0.20000000000000284},{"name":"G5","midi":79,"time":50.4000000000003,"velocity":0.3937007874015748,"duration":0.3999999999999986},{"name":"G4","midi":67,"time":50.4000000000003,"velocity":0.3937007874015748,"duration":0.3999999999999986},{"name":"A#4","midi":70,"time":50.4000000000003,"velocity":0.3937007874015748,"duration":0.3999999999999986},{"name":"D#5","midi":75,"time":50.4000000000003,"velocity":0.3937007874015748,"duration":0.3999999999999986},{"name":"D2","midi":38,"time":50.4000000000003,"velocity":0.3937007874015748,"duration":0.3999999999999986},{"name":"D1","midi":26,"time":50.4000000000003,"velocity":0.3937007874015748,"duration":0.3999999999999986},{"name":"G3","midi":55,"time":50.800000000000296,"velocity":0.3937007874015748,"duration":0.3999999999999986},{"name":"G2","midi":43,"time":50.800000000000296,"velocity":0.3937007874015748,"duration":0.3999999999999986},{"name":"F3","midi":53,"time":51.200000000000294,"velocity":0.3937007874015748,"duration":0.20000000000000284},{"name":"F4","midi":65,"time":51.4000000000003,"velocity":0.3937007874015748,"duration":0.10000000000000142},{"name":"G#4","midi":68,"time":51.6000000000003,"velocity":0.3937007874015748,"duration":0.10000000000000142},{"name":"C3","midi":48,"time":51.6000000000003,"velocity":0.3937007874015748,"duration":0.20000000000000284},{"name":"C5","midi":72,"time":51.8000000000003,"velocity":0.3937007874015748,"duration":0.10000000000000142},{"name":"F5","midi":77,"time":52.000000000000306,"velocity":0.3937007874015748,"duration":0.4000000000000057},{"name":"F3","midi":53,"time":52.000000000000306,"velocity":0.3937007874015748,"duration":0.20000000000000284},{"name":"G#5","midi":80,"time":52.40000000000031,"velocity":0.3937007874015748,"duration":0.4000000000000057},{"name":"C3","midi":48,"time":52.40000000000031,"velocity":0.3937007874015748,"duration":0.20000000000000284},{"name":"G5","midi":79,"time":52.80000000000032,"velocity":0.3937007874015748,"duration":0.10000000000000142},{"name":"G3","midi":55,"time":52.80000000000032,"velocity":0.3937007874015748,"duration":0.20000000000000284},{"name":"D5","midi":74,"time":53.00000000000032,"velocity":0.3937007874015748,"duration":0.10000000000000142},{"name":"B4","midi":71,"time":53.20000000000032,"velocity":0.3937007874015748,"duration":0.4000000000000057},{"name":"D3","midi":50,"time":53.20000000000032,"velocity":0.3937007874015748,"duration":0.20000000000000284},{"name":"G4","midi":67,"time":53.60000000000033,"velocity":0.3937007874015748,"duration":0.4000000000000057},{"name":"G3","midi":55,"time":53.60000000000033,"velocity":0.3937007874015748,"duration":0.20000000000000284},{"name":"D#5","midi":75,"time":54.000000000000334,"velocity":0.3937007874015748,"duration":0.10000000000000142},{"name":"D3","midi":50,"time":54.000000000000334,"velocity":0.3937007874015748,"duration":0.20000000000000284},{"name":"D5","midi":74,"time":54.20000000000034,"velocity":0.3937007874015748,"duration":0.10000000000000142},{"name":"C5","midi":72,"time":54.40000000000034,"velocity":0.3937007874015748,"duration":0.10000000000000142},{"name":"G#3","midi":56,"time":54.40000000000034,"velocity":0.3937007874015748,"duration":0.20000000000000284},{"name":"B4","midi":71,"time":54.60000000000034,"velocity":0.3937007874015748,"duration":0.10000000000000142},{"name":"C5","midi":72,"time":54.800000000000345,"velocity":0.3937007874015748,"duration":0.10000000000000142},{"name":"G#3","midi":56,"time":54.800000000000345,"velocity":0.3937007874015748,"duration":0.20000000000000284},{"name":"D5","midi":74,"time":55.00000000000035,"velocity":0.3937007874015748,"duration":0.10000000000000142},{"name":"D#5","midi":75,"time":55.20000000000035,"velocity":0.3937007874015748,"duration":0.4000000000000057},{"name":"G#3","midi":56,"time":55.20000000000035,"velocity":0.3937007874015748,"duration":0.20000000000000284},{"name":"C5","midi":72,"time":55.60000000000036,"velocity":0.3937007874015748,"duration":0.3999999999999986},{"name":"B4","midi":71,"time":56.000000000000355,"velocity":0.3937007874015748,"duration":0.10000000000000142},{"name":"G2","midi":43,"time":56.000000000000355,"velocity":0.3937007874015748,"duration":0.20000000000000284},{"name":"C5","midi":72,"time":56.20000000000036,"velocity":0.3937007874015748,"duration":0.10000000000000142},{"name":"D5","midi":74,"time":56.40000000000036,"velocity":0.3937007874015748,"duration":0.4000000000000057},{"name":"B2","midi":47,"time":56.40000000000036,"velocity":0.3937007874015748,"duration":0.20000000000000284},{"name":"C5","midi":72,"time":56.80000000000037,"velocity":0.3937007874015748,"duration":0.20000000000000284},{"name":"C3","midi":48,"time":56.80000000000037,"velocity":0.3937007874015748,"duration":0.20000000000000284},{"name":"C6","midi":84,"time":57.20000000000037,"velocity":0.3937007874015748,"duration":0.20000000000000284}],"controlChanges":{},"id":0,"name":"Elec. Piano (Classic)","instrumentNumber":4,"instrument":"electric piano 1","instrumentFamily":"piano","channelNumber":0,"isPercussion":false}]}